<?xml version="1.0" encoding="utf-8"?>
<!-- Generator: Adobe Illustrator 16.0.0, SVG Export Plug-In . SVG Version: 6.00 Build 0)  -->
<!DOCTYPE svg PUBLIC "-//W3C//DTD SVG 1.1//EN" "http://www.w3.org/Graphics/SVG/1.1/DTD/svg11.dtd">
<svg version="1.1" id="圖層_1" xmlns="http://www.w3.org/2000/svg" xmlns:xlink="http://www.w3.org/1999/xlink" x="0px" y="0px"
	 width="26.512px" height="26.77px" viewBox="0 0 26.512 26.77" enable-background="new 0 0 26.512 26.77" xml:space="preserve">
<g>
	<path fill="#FFFFFF" d="M21.034,5.606c-0.391-0.391-1.023-0.391-1.414,0l-6.364,6.364L6.892,5.606
		c-0.391-0.391-1.023-0.391-1.414,0s-0.391,1.023,0,1.414l6.364,6.364l-6.364,6.364c-0.391,0.391-0.391,1.023,0,1.414
		c0.195,0.195,0.451,0.293,0.707,0.293s0.512-0.098,0.707-0.293l6.364-6.364l6.364,6.364c0.195,0.195,0.451,0.293,0.707,0.293
		s0.512-0.098,0.707-0.293c0.391-0.391,0.391-1.023,0-1.414l-6.364-6.364l6.364-6.364C21.425,6.63,21.425,5.997,21.034,5.606z"/>
	<path fill="#FFFFFF" d="M13.256,0C5.947,0,0,6.004,0,13.385S5.947,26.77,13.256,26.77s13.256-6.004,13.256-13.385
		S20.565,0,13.256,0z M13.256,25.77C6.498,25.77,1,20.214,1,13.385S6.498,1,13.256,1s12.256,5.556,12.256,12.385
		S20.014,25.77,13.256,25.77z"/>
</g>
</svg>
