<?xml version="1.0" encoding="utf-8"?>
<!-- Generator: Adobe Illustrator 16.0.0, SVG Export Plug-In . SVG Version: 6.00 Build 0)  -->
<!DOCTYPE svg PUBLIC "-//W3C//DTD SVG 1.1//EN" "http://www.w3.org/Graphics/SVG/1.1/DTD/svg11.dtd">
<svg version="1.1" id="圖層_1" xmlns="http://www.w3.org/2000/svg" xmlns:xlink="http://www.w3.org/1999/xlink" x="0px" y="0px"
	 width="481.89px" height="94.161px" viewBox="0 0 481.89 94.161" enable-background="new 0 0 481.89 94.161" xml:space="preserve">
<g>
	<g>
		<path fill="#C99742" d="M2.13,59.396c14.741,0.277,35.655-12.823,39.879-27.294c1.114-3.812-0.821-7.049-3.609-9.393
			c-6.065-5.077-13.978-4.942-19.971,0.712c-8.44,7.944-0.79,19.038,7.473,23.186c18.167,9.157,44.725-5.803,59.971-14.513
			c-0.71-0.712-1.417-1.423-2.124-2.132C71.854,36.919,61.798,45.957,51.883,55.44c-5.075,4.854-6.53,11.005-1.371,16.18
			c15.118,15.2,45.359-1.512,55.329-15.218c3.651-5.043,2.491-11.071-2.987-13.919c-8.266-4.3-20.224,6.063-23.279,13.475
			c-2.428,5.903,5.824,9.662,10.051,10.193c10.515,1.33,21.73-2.857,31.247-6.934c6.371-2.738,12.626-5.779,18.83-8.879
			c-0.273,0.141-1.801-2.283-2.123-2.131c-10.244,4.77-18.973,13.763-26.529,21.898c-3.844,4.141-8.871,8.939-3.865,13.864
			c5.274,5.198,16.412,1.296,22.209-0.972c12.682-4.941,24.76-13.92,32.639-25.128c4.008-5.72,8.658-16.703,2.656-22.763
			c-6.492-6.563-15.584-4.006-19.154,4.197c-2.545,5.853-0.475,10.75,3.742,14.845c5.525,5.374,14.469,1.862,19.945-1.44
			c12.938-7.796,28.418-24.736,29.77-40.937c0.998-11.918-14.244-13.844-22.289-9.958c-10.584,5.131-19.451,19.661-9.535,28.926
			c4.928,4.609,13.264,3.453,19.502,3.811c9.186,0.514,22.023,1.114,29.057,7.917c-0.658-0.662-1.318-1.329-1.975-1.989
			c5.643,6.906,2.76,15.856-3.07,21.501c-6.17,5.972-16.941,6.782-24.783,5.384c0.795,0.131,1.316,1.854,2.123,2.136
			c11.254,3.894,25.262,7.132,37.111,4.922c9.342-1.747,19.814-8.165,17.789-19.207c-2.67-14.624-31.686,0.328-18.006,13.915
			c15.715,15.619,41.148-7.142,45.002-23.348c1.447-6.086-2.447-12.444-7.479-15.723c-10.324-6.741-23.57,7.475-20.494,17.557
			c5.479,18.023,29.875,8.269,42.844,13.47c8.996,3.615,3.262,14.736-0.904,19.942c-9.627,12.039-24.344,12.261-37.523,6.241
			c0.828,0.375,1.355,1.618,2.127,2.142c16.266,11.064,38.998,0.654,52.662-9.398c8.191-6.021,27.906-22.267,14.695-31.639
			c-10.463-7.425-27.25,7.424-17.16,17.451c5.068,5.036,15.658,1.541,21.18-0.738c10.844-4.477,20.574-12.559,29.643-19.784
			c-0.703-0.707-1.416-1.425-2.123-2.135c-6.844,7.075-22.336,21.611-12.557,31.111c5.531,5.371,17.18-1.778,22.121-4.473
			c9.125-4.978,18.127-11.285,25.641-18.538c4.836-4.662,10.213-10.92,4.479-16.654c-5.869-5.871-16.344-3.825-20.729,2.91
			c-7.75,11.889,8.195,16.564,17.297,14.341c16.352-3.985,31.484-15.753,44.742-25.498c-0.715-0.713-1.424-1.426-2.129-2.136
			c-9.639,8.114-20.525,20.683-23.779,33.061c-0.941,3.583,0.764,5.77,3.188,8.131c6.955,6.761,23.969-2.643,30.42-5.579
			c17.094-7.797,33.787-18.189,45.811-32.916c0.074-0.082-2.172-2.069-2.127-2.132c-9.938,12.159-23.076,21.299-36.881,28.521
			c-9.549,4.991-25.25,14.607-36.783,11.484c-0.49-0.133-0.939-0.356-1.389-0.602c-1.42-0.743,1.168,1.645,0.375,0.455
			c-0.441-0.683-0.627-1.523-0.73-2.327c-0.129-1.072,0.027-2.218,0.338-3.243c3.717-12.326,13.955-24.516,23.688-32.718
			c-0.08,0.056-2.008-2.228-2.129-2.136c-12.875,9.466-26.559,19.365-41.797,24.624c-5.699,1.97-13.975,2.895-18.84-1.358
			c0.691,0.703,1.393,1.395,2.086,2.1c-8.01-10.08,12.395-20.442,20.703-13.629c-0.699-0.691-1.391-1.382-2.086-2.086
			c7.178,7.99-12.488,21.289-17.791,25.043c-7.23,5.116-14.822,9.99-23.092,13.209c-3.654,1.424-9.201,3.069-12.58,0.146
			c0.605,0.604,1.221,1.211,1.822,1.821c-6.961-7.154,10.379-24.182,14.832-28.798c-0.008,0.01-2.061-2.184-2.123-2.135
			c-8.971,7.149-18.32,14.516-28.762,19.395c-5.629,2.63-16.008,5.983-21.518,1.642c0.662,0.664,1.322,1.322,1.982,1.986
			c-8.975-9.272,11.463-23.267,19.922-14.888c-0.525-0.543-1.063-1.082-1.59-1.615c4.172,5.95-3.51,14.083-7.254,18.22
			c-6.545,7.232-14.658,13.094-23.225,17.635c-11.457,6.081-28.916,9.656-40.58,1.728c0.707,0.711,1.41,1.422,2.127,2.142
			c13.119,5.99,26.768,5.696,36.848-5.459c4.764-5.261,9.139-13.753,3.67-20.083c-4.441-5.122-10.525-6.675-17.104-7.105
			c-8.369-0.553-19.297,3.074-26.117-3.309c0.693,0.701,1.393,1.397,2.084,2.104c-5.32-6.398-6.254-13.786,0.195-19.691
			c5.004-4.576,13.102-7.189,18.41-2.03c-0.658-0.664-1.318-1.33-1.977-1.994c9.154,10.921-1.844,23.986-10.053,31.64
			c-8.117,7.563-21.699,12.345-31.082,4.076c0.699,0.695,1.398,1.39,2.086,2.098c-4.713-5.563-1.588-10.729,3.24-14.883
			c3.23-2.791,8.387-5.709,12.33-2.93c-0.645-0.655-1.307-1.319-1.975-1.978c3.414,3.524,2.055,9.517-0.131,13.305
			c-2.762,4.778-8.732,7.224-13.77,8.617c-12.229,3.383-27.527-0.37-39.246-4.425c0.711,0.711,1.416,1.416,2.123,2.136
			c11.359,2.025,25.002-1.249,30.07-12.679c2.449-5.514,0.193-11.854-3.811-15.829c-6.121-6.081-15.727-7.19-23.904-8.108
			c-7.824-0.87-18.797,0.998-25.295-4.236c0.666,0.657,1.326,1.32,1.988,1.982c-11.963-12.613,16.906-38.515,29.434-26.09
			c-0.525-0.537-1.053-1.081-1.582-1.614c7.705,10.151-6.395,27.04-12.709,34.314c-6.877,7.931-23.021,23.99-34.906,14.913
			c0.605,0.612,1.211,1.213,1.816,1.816c-8.908-9.111,5.922-28.244,16.186-18.203c-0.652-0.67-1.314-1.331-1.971-1.996
			c8.268,11.033-6.623,27.637-14.654,34.115c-8.012,6.457-16.991,11.896-26.882,14.881c-4.286,1.293-12.618,3.109-16.104-0.324
			c0.604,0.616,1.207,1.22,1.807,1.832c-3.744-6.137,9.77-16.387,12.689-19.237c5.676-5.515,12.256-11.322,19.51-14.698
			c-0.713-0.713-1.418-1.428-2.123-2.131c-10.076,5.028-20.21,10.037-31.008,13.302c-7.36,2.228-18.871,5.085-25.88,0.066
			c0.693,0.702,1.388,1.398,2.087,2.095c-7.464-8.201,15.286-24.813,23.123-18.494c-0.449-0.445-0.905-0.896-1.354-1.34
			c10.25,10.342-20.509,25.748-25.502,27.816c-9.403,3.872-21.136,5.895-29.587-1.106c0.701,0.69,1.394,1.394,2.09,2.097
			c-6.286-6.832,1.288-13.961,6.099-18.81c8.311-8.348,18.064-15.788,28.225-21.74c-0.207,0.118-1.877-2.276-2.124-2.132
			C67.671,39.145,42.767,52.9,23.78,44.48c-17.522-7.772,1.807-32.145,16.744-19.632c-0.706-0.716-1.417-1.42-2.124-2.14
			c6.543,9.065-6.579,19.722-12.747,24.427C18.342,52.745,9.4,57.435,0,57.262C0.704,57.272,1.39,59.382,2.13,59.396L2.13,59.396z"
			/>
	</g>
	<g>
		<path fill="#C99742" d="M60.648,13.811c-1.625,6.164-5.951,11.267-10.698,15.267c0.134-0.113,1.826,2.198,2.12,2.129
			c17.474-3.557,34.476-11.357,50.451-18.994c-0.276,0.13-1.799-2.288-2.124-2.135c-15.978,7.634-32.973,15.434-50.447,19
			c0.71,0.716,1.415,1.423,2.12,2.129c4.754-3.992,9.08-9.095,10.708-15.26C62.912,15.437,60.529,14.284,60.648,13.811
			L60.648,13.811z"/>
	</g>
	<g>
		<path fill="#C99742" d="M118.672,37.063c-0.727,4.348-3.41,7.851-6.88,10.373c0.182-0.139,1.788,2.211,2.121,2.143
			c11.07-2.017,21.956-6.179,31.669-11.831c-0.205,0.126-1.877-2.275-2.119-2.131c-9.722,5.645-20.604,9.81-31.67,11.819
			c0.71,0.73,1.412,1.433,2.121,2.143c3.478-2.52,6.157-6.034,6.886-10.381C120.9,38.607,118.585,37.618,118.672,37.063
			L118.672,37.063z"/>
	</g>
	<g>
		<path fill="#C99742" d="M173.939,25.893c0.807-3.246,2.561-6.428,5.203-8.496c3.906-3.045,9.391-1.162,11.355,2.964
			c0.408,0.863,1.721,1.285,2.123,2.136c-1.857-3.917-5.762-7.831-10.109-8.609c-5.693-1.022-9.51,5.121-10.693,9.877
			C171.685,24.279,174.06,25.413,173.939,25.893L173.939,25.893z"/>
	</g>
	<g>
		<path fill="#C99742" d="M182.64,56.626c6.336,3.688,11.279,0.203,11.109-7.047c-0.711-0.71-1.418-1.412-2.123-2.143
			c2.145,6.919,13.627,12.415,16.861,3.377c0.15-0.432-2.266-1.758-2.123-2.137c-1.756,4.917-8.539,6.43-12.313,2.69
			c0.596,0.614,1.205,1.225,1.799,1.833c-0.904-1.071-1.686-2.26-2.102-3.621c-0.229-0.714-2.107-1.436-2.123-2.143
			c0.164,7.259-4.773,10.745-11.111,7.056C181.347,54.978,181.796,56.134,182.64,56.626L182.64,56.626z"/>
	</g>
	<g>
		<path fill="#C99742" d="M251.488,50.211c0.324-3.075,1.73-6.168,4.328-7.884c2.479-1.643,6.559-1.175,8.66,0.812
			c-0.695-0.702-1.4-1.403-2.088-2.1c0.838,0.985,1.223,2.025,1.438,3.291c0.143,0.822,1.994,1.337,2.125,2.13
			c-0.684-4.065-4.797-7.27-8.83-7.201c-4.654,0.062-7.314,4.592-7.758,8.814C249.298,48.718,251.546,49.601,251.488,50.211
			L251.488,50.211z"/>
	</g>
	<g>
		<path fill="#C99742" d="M255.335,78.086c1.971,1.321,4.24,2.209,6.598,2.427c4.59,0.405,6.566-4.694,5.393-8.406
			c-0.705-0.718-1.42-1.423-2.129-2.131c0.914,2.134,2.652,3.704,4.283,5.29c4.27,4.146,10.588-0.555,10.32-5.683
			c-0.043-0.76-2.09-1.397-2.125-2.13c0.268,5.288-5.74,9.386-10.17,5.815c0.271,0.252,0.523,0.516,0.789,0.764
			c-0.176-0.18-0.355-0.356-0.541-0.535c0.441,0.454,0.891,0.909,1.336,1.359c-0.707-0.845-1.324-1.732-1.764-2.75
			c-0.354-0.845-1.852-1.288-2.129-2.131c1.168,3.688-0.496,7.842-4.635,8.393c-2.469,0.327-5.342-1.073-7.348-2.419
			C254.025,76.494,254.513,77.533,255.335,78.086L255.335,78.086z"/>
	</g>
	<g>
		<path fill="#C99742" d="M327.294,37.248c0.154,4.592-2.248,8.8-5.197,12.086c0.039-0.042,1.969,2.211,2.123,2.135
			c9.568-4.591,18.354-11.33,25.791-18.87c0.02-0.021-2.115-2.147-2.127-2.134c-7.441,7.54-16.221,14.263-25.787,18.869
			c0.705,0.714,1.42,1.422,2.123,2.135c2.951-3.283,5.354-7.494,5.201-12.085C329.39,38.645,327.32,37.979,327.294,37.248
			L327.294,37.248z"/>
	</g>
	<g>
		<path fill="#C99742" d="M399.341,19.513c0.273,4.576-1.623,8.721-5.018,11.703c0.125-0.098,1.885,2.225,2.129,2.131
			c10.609-3.734,20.404-11.5,29.295-18.113c-0.104,0.071-1.992-2.247-2.135-2.14c-8.879,6.622-18.676,14.383-29.289,18.122
			c0.713,0.714,1.42,1.427,2.129,2.131c3.393-2.979,5.285-7.122,5.012-11.701C401.41,20.879,399.378,20.249,399.341,19.513
			L399.341,19.513z"/>
	</g>
</g>
</svg>
