<?xml version="1.0" encoding="utf-8"?>
<!-- Generator: Adobe Illustrator 16.0.0, SVG Export Plug-In . SVG Version: 6.00 Build 0)  -->
<!DOCTYPE svg PUBLIC "-//W3C//DTD SVG 1.1//EN" "http://www.w3.org/Graphics/SVG/1.1/DTD/svg11.dtd">
<svg version="1.1" id="圖層_1" xmlns="http://www.w3.org/2000/svg" xmlns:xlink="http://www.w3.org/1999/xlink" x="0px" y="0px"
	 width="181.372px" height="209.322px" viewBox="0 0 181.372 209.322" enable-background="new 0 0 181.372 209.322"
	 xml:space="preserve">
<g>
	<g>
		<path fill="#FFFFFF" d="M8.497,25.126c9.428-1.42,24.485-6.196,26.758-16.79c0.512-2.386-1.188-4.967-3.196-6.241
			c-4.48-2.842-11.025-0.755-14.659,2.569c-7.072,6.471-1.981,17.066,5.437,20.504c12.516,5.801,30.798-3.366,41.035-10.042
			c-0.116,0.076-1.261-1.5-1.414-1.414c-5.781,3.237-10.5,10.125-13.632,15.704c-2.05,3.652-1.763,7.067,1.174,9.971
			c3.834,3.789,9.92,3.3,14.867,2.819c11.34-1.102,22.781-5.267,31.904-12.127c10.8-8.122,1.028-21.511-9.583-14.18
			c-10.464,7.229-3.932,20.489,5.85,23.456c12.414,3.765,27.758-4.898,36.959-12.104c-0.057,0.044-1.33-1.477-1.414-1.414
			c-8.254,6.16-24.718,20.738-14.303,31.211c4.757,4.782,10.664,5.764,17.068,5.976c14.514,0.479,28.934-3.708,40.523-12.522
			c-0.06,0.045-1.33-1.478-1.414-1.414c-10.656,8.104-23.34,12.053-36.642,12.52c-5.996,0.211-15.354,0.264-19.71-4.84
			c-8.238-9.654,9.032-24.396,15.891-29.516c-0.471-0.472-0.943-0.942-1.414-1.414c-8.17,6.398-17.654,11.008-27.956,12.617
			c-6.149,0.961-14.029-0.41-16.551-6.755c-2.139-5.378,0.57-11.651,5.147-14.813c4.444-3.07,11.382-2.508,11.146,3.856
			c-0.346,9.278-15.896,14.665-22.658,16.981c-6.515,2.232-13.789,3.604-20.708,3.365c-3.434-0.118-7.729-0.884-8.184-4.832
			c-0.223-1.938,0.632-4.018,1.561-5.672c3.081-5.488,7.81-12.275,13.494-15.459c-0.471-0.472-0.943-0.942-1.414-1.414
			c-10.764,7.02-32.388,17.904-44.424,7.781c0.404,0.4,0.808,0.801,1.212,1.202c-4.651-4.76-5.146-11.665-0.431-16.617
			c3.553-3.73,11.528-5.635,15.493-1.783c-0.438-0.44-0.876-0.881-1.314-1.321c3.994,6.679-5.062,12.784-9.843,15.421
			c-4.868,2.686-10.566,4.488-16.068,5.317C7.462,23.655,8.094,25.187,8.497,25.126L8.497,25.126z"/>
	</g>
	<g>
		<path fill="#FFFFFF" d="M46.5,1.837c-1.555,4.056-4.77,7.207-8.417,9.417c0.161-0.098,1.149,1.432,1.414,1.414
			c10.539-0.69,21.054-5.863,29.875-11.251c-0.121,0.074-1.268-1.503-1.414-1.414c-8.821,5.388-19.336,10.56-29.875,11.251
			c0.471,0.472,0.943,0.942,1.414,1.414c3.647-2.21,6.862-5.361,8.417-9.417C48.016,2.985,46.407,2.078,46.5,1.837L46.5,1.837z"/>
	</g>
	<g>
		<path fill="#FFFFFF" d="M111.083,13.462c-0.915,4.56-3.791,8.524-7,11.75c0.053-0.054,1.254,1.457,1.414,1.414
			c12.418-3.316,24.333-9.463,35-16.5c-0.1,0.065-1.29-1.496-1.414-1.414c-10.667,7.037-22.583,13.183-35,16.5
			c0.471,0.472,0.943,0.942,1.414,1.414c3.209-3.226,6.086-7.19,7-11.75C112.572,14.502,111.013,13.812,111.083,13.462
			L111.083,13.462z"/>
	</g>
	<g>
		<path fill="#FFFFFF" d="M22.872,89.876c5.634-1.034,11.223-3.793,15.125-8c3.438-3.707,5.562-10.362,1.593-14.378
			c-7.9-7.993-21,7.283-13.372,15.388c9.58,10.179,27.376-1.516,35.729-7.438c4.937-3.5,11.58-10.294,9.889-16.929
			c-1.002-3.931-5.095-6.762-8.838-7.389c-10.178-1.705-25.528,12.006-17.694,22.31c2.5,3.287,6.228,4.643,10.253,5.041
			c7.229,0.716,14.1-0.687,19.94,5.041c-0.401-0.404-0.802-0.809-1.202-1.212c4.999,5.852,5.062,14.371-0.182,20.109
			c-6.049,6.621-17.1,5.727-24.323,2.167c0.555,0.273,0.889,1.066,1.414,1.414c12.904,8.534,31.815,12.774,46.831,8.402
			c6.305-1.835,17.816-7.854,16.146-16.256c-0.73-3.68-5.707-6.594-9.044-6.594c-5.646-0.002-9.868,5.936-11.138,10.927
			c-0.844,3.315,0.872,5.768,3.4,7.645c4.373,3.244,11.941,1.553,16.702-0.229c8.895-3.331,18.342-10.285,23.899-17.951
			c8.922-12.307-3.847-24.669-16.524-17.428c-10.939,6.248-10.805,20.012,0.171,25.455c3.275,1.625,7.576,1.835,11.102,2.57
			c4.496,0.939,9.322,1.851,13.54,3.72c7.757,3.438,12.11,10.336,10.94,18.863c-1.382,10.079-13.342,14.827-22.151,13.855
			c-7.486-0.825-14.499-4.691-20.745-8.644c0.547,0.346,0.861,1.064,1.414,1.414c9.962,6.304,23.676,12.878,34.923,5.781
			c4.776-3.015,7.849-7.965,8.238-13.525c0.54-7.718-5.513-14.253-11.717-17.961c-4.336-2.591-9.565-3.499-14.415-4.604
			c-5.508-1.255-11.661-1.383-16.131-5.231c0.404,0.401,0.809,0.802,1.213,1.202c-6.238-6.348-3.022-15.344,3.282-20.303
			c6.202-4.879,17.533-5.382,18.641,4.014c0.627,5.32-3.43,9.995-6.866,13.462c-4.951,4.997-10.668,9.31-16.962,12.465
			c-5.593,2.805-15.661,5.78-20.862,0.917c0.463,0.464,0.925,0.927,1.387,1.391c-2.559-3.031-0.812-7.222,0.947-10.211
			c3.278-5.574,10.063-8.296,15.113-3.725c-0.463-0.464-0.925-0.928-1.387-1.391c3.814,4.603,0.494,9.797-3.379,13.126
			c-6.082,5.228-14.719,7.516-22.605,7.602c-11.667,0.127-25.548-3.672-35.378-10.173c0.471,0.472,0.943,0.942,1.414,1.414
			c11.321,5.579,29.946,1.924,28.171-14.026c-0.923-8.298-8.316-13.537-16.073-14.691c-4.827-0.719-9.583,0.382-14.32-1.295
			c-4.159-1.473-4.522-5.974-3.756-9.745c1.93-9.5,15.673-18.659,24.331-11.509c-0.356-0.353-0.713-0.705-1.07-1.058
			c6.096,6.189-1.565,15.044-6.426,19.168c-6.763,5.737-16.015,10.623-24.796,12.313c-3.027,0.583-6.309,0.264-9.128-0.958
			c-2.842-1.231-3.03-5.115-2.726-7.767c0.643-5.594,9.004-12.729,14.524-8.579c-0.464-0.463-0.927-0.925-1.391-1.387
			c4.343,4.557,0.273,11.91-3.358,15.421c-3.569,3.451-8.873,5.682-13.727,6.573C21.818,88.396,22.488,89.947,22.872,89.876
			L22.872,89.876z"/>
	</g>
	<g>
		<path fill="#FFFFFF" d="M120.31,91.251c2.105-4.89,8.777-12.694,14.389-7.367c-0.463-0.464-0.926-0.928-1.388-1.391
			c0.581,0.695,1.013,1.377,1.439,2.178c0.302,0.566,1.117,0.855,1.414,1.414c-1.646-3.096-4.531-5.85-8.279-5.191
			c-4.242,0.745-7.405,5.266-8.989,8.943C118.792,90.077,120.401,91.039,120.31,91.251L120.31,91.251z"/>
	</g>
	<g>
		<path fill="#FFFFFF" d="M49.247,70.376c1.38-6.336,9.948-13.193,15.85-7.686c-0.462-0.463-0.925-0.927-1.387-1.391
			c0.576,0.693,0.979,1.351,1.374,2.162c0.277,0.57,1.141,0.853,1.414,1.414c-4.53-9.312-16.648-5.169-18.664,4.086
			C47.753,69.327,49.321,70.038,49.247,70.376L49.247,70.376z"/>
	</g>
	<g>
		<path fill="#FFFFFF" d="M52.851,94.251c3.352,0.376,6.921-1.3,6.814-5.107c-0.471-0.472-0.943-0.942-1.414-1.414
			c1.077,6.986,10.222,6.612,13.317,1.328c0.093-0.158-1.492-1.281-1.414-1.414c-1.932,3.299-7.016,5.721-10.436,3.068
			c0.464,0.463,0.927,0.925,1.391,1.388c-0.765-0.87-1.268-1.816-1.444-2.956c-0.078-0.505-1.4-0.932-1.414-1.414
			c0.107,3.808-3.462,5.483-6.814,5.107C51.945,92.894,52.324,94.193,52.851,94.251L52.851,94.251z"/>
	</g>
	<g>
		<path fill="#FFFFFF" d="M120.583,120.775c3.587,5.537,11.826,1.902,11.477-4.461c-0.471-0.472-0.943-0.942-1.414-1.414
			c1.64,7.823,12.756,6.371,14.352-1.023c0.079-0.365-1.488-1.073-1.414-1.414c-1.022,4.739-7.032,8.817-11.393,5.216
			c0.464,0.463,0.928,0.925,1.391,1.388c-0.73-0.794-1.299-1.688-1.521-2.752c-0.107-0.511-1.387-0.922-1.414-1.414
			c0.233,4.258-5.422,9.992-9.561,6.483c0.464,0.463,0.928,0.925,1.391,1.387c-0.186-0.174-0.346-0.367-0.479-0.581
			C121.642,121.639,120.936,121.319,120.583,120.775L120.583,120.775z"/>
	</g>
	<g>
		<path fill="#FFFFFF" d="M1.414,148.168c10.334-1.6,25.535-7.593,27.419-19.333c0.508-3.168-1.945-6.352-4.444-8.103
			c-5.551-3.888-11.823,0.593-14.762,5.447c-5.275,8.71,3.058,17.026,11.021,19.278c5.248,1.483,11.308-0.176,16.448-1.363
			c9.868-2.279,19.442-5.91,28.151-11.094c-0.471-0.472-0.943-0.942-1.414-1.414c-9.275,6.012-20.845,14.521-24.554,25.345
			c-2.941,8.583,5.979,14.085,12.843,16.178c9.496,2.896,19.744,1.122,28.877-2.156c7.255-2.604,16.043-6.553,19.305-14.113
			c1.705-3.952,0.381-8.217-2.835-10.796c-5.949-4.77-13.208,2.699-15.626,7.711c-4.42,9.164,2.831,16.859,11.242,19.047
			c14.877,3.868,31.95-5.245,43.162-13.884c-0.061,0.047-1.326-1.479-1.414-1.414c-9.952,7.344-34.691,28.363-21.715,41.894
			c18.109,18.882,48.439,6.652,68.254-2.521c-0.195,0.091-1.193-1.517-1.414-1.414c-11.921,5.519-25.003,10.728-38.18,12.229
			c-8.607,0.98-22.411-0.473-28.197-7.939c-6.503-8.392,1.033-19.258,6.566-25.846c4.684-5.574,10.239-10.662,16.1-14.987
			c-0.471-0.472-0.943-0.942-1.414-1.414c-12.038,9.275-32.941,20.225-48.371,11.889c-12.006-6.486,2.494-29.893,12.42-21.934
			c-0.404-0.401-0.808-0.802-1.212-1.202c4.025,4.09,1.207,10.53-2.014,14.08c-3.763,4.147-9.481,6.513-14.5,8.594
			c-11.307,4.688-25.401,6.42-36.517,0.246c-16.416-9.115,13.039-31.271,20.607-36.176c-0.112,0.073-1.27-1.5-1.414-1.414
			c-9.073,5.4-18.991,8.978-29.254,11.349c-5.887,1.36-11.716,2.494-17.596,0.39c-16.926-6.058-0.504-30.489,9.811-20.275
			c-0.353-0.356-0.705-0.714-1.058-1.07c5.075,7.05-2.462,14.368-8,18.085c-5.15,3.456-11.606,5.74-17.735,6.689
			C0.377,146.696,1.013,148.231,1.414,148.168L1.414,148.168z"/>
	</g>
	<g>
		<path fill="#FFFFFF" d="M113.166,147.171c-1.235,4.127-4.683,7.25-8.146,9.541c0.137-0.09,1.163,1.419,1.414,1.414
			c12.488-0.221,25.186-5.369,35.146-12.625c-0.071,0.052-1.318-1.483-1.414-1.414c-9.961,7.256-22.658,12.404-35.146,12.625
			c0.471,0.472,0.943,0.942,1.414,1.414c3.463-2.291,6.91-5.414,8.146-9.541C114.675,148.27,113.079,147.461,113.166,147.171
			L113.166,147.171z"/>
	</g>
	<g>
		<path fill="#FFFFFF" d="M40.958,120.462c-1.447,4.36-4.426,8.106-8.292,10.542c0.15-0.095,1.155,1.427,1.414,1.414
			c11.27-0.568,22.598-4.902,32.417-10.167c-0.157,0.084-1.231-1.512-1.414-1.414c-9.819,5.264-21.146,9.599-32.417,10.167
			c0.471,0.472,0.943,0.942,1.414,1.414c3.866-2.436,6.845-6.182,8.292-10.542C42.471,121.58,40.868,120.733,40.958,120.462
			L40.958,120.462z"/>
	</g>
</g>
</svg>
