<?xml version="1.0" encoding="utf-8"?>
<!-- Generator: Adobe Illustrator 16.0.0, SVG Export Plug-In . SVG Version: 6.00 Build 0)  -->
<!DOCTYPE svg PUBLIC "-//W3C//DTD SVG 1.1//EN" "http://www.w3.org/Graphics/SVG/1.1/DTD/svg11.dtd">
<svg version="1.1" id="圖層_1" xmlns="http://www.w3.org/2000/svg" xmlns:xlink="http://www.w3.org/1999/xlink" x="0px" y="0px"
	 width="43.354px" height="49.515px" viewBox="0 0 43.354 49.515" enable-background="new 0 0 43.354 49.515" xml:space="preserve">
<g>
	<g>
		<path fill="#D48375" d="M0.836,49.515c-0.146,0-0.289-0.038-0.418-0.111C0.16,49.257,0,48.981,0,48.687V0.83
			c0-0.296,0.16-0.57,0.418-0.72c0.257-0.147,0.575-0.147,0.834,0l41.686,23.93c0.259,0.146,0.416,0.421,0.416,0.717
			c0,0.298-0.157,0.57-0.416,0.719L1.252,49.403C1.123,49.477,0.979,49.515,0.836,49.515z M1.668,2.268v44.98l39.184-22.491
			L1.668,2.268z"/>
	</g>
	<g>
		<path fill="#D48375" d="M15.703,21.787c-0.072,0.12-0.14-2.059-0.393-5c0,0,0.253-0.745,0.963-0.602c0,0,0.533,0.212,0.604,0.957
			C16.877,17.143,17.059,19.519,15.703,21.787z"/>
	</g>
	<g>
		<path fill="#D48375" d="M9.748,27.104c0,0-1.782,0.318-3.173,0.249c0,0-0.642,0.034-0.856,0.389c0,0,0.035,0.78,0.822,1.028
			c0,0,2.031,0.569,3.529-1.136C10.07,27.635,10.347,27.013,9.748,27.104z"/>
	</g>
	<g>
		<path fill="#D48375" d="M20.09,21.792c0,0-0.606,2.619-1.178,4.321c0,0-0.46,1.864-1.269,2.749c0,0-1.867,2.037-4.008,3.277
			c0,0,3.638-0.781,5.705-1.846c0,0,1.213-0.565,1.213-3.969c0,0,0.145-1.985-0.142-4.857C20.412,21.468,20.182,21.403,20.09,21.792
			z"/>
	</g>
</g>
</svg>
