<?xml version="1.0" encoding="utf-8"?>
<!-- Generator: Adobe Illustrator 16.0.0, SVG Export Plug-In . SVG Version: 6.00 Build 0)  -->
<!DOCTYPE svg PUBLIC "-//W3C//DTD SVG 1.1//EN" "http://www.w3.org/Graphics/SVG/1.1/DTD/svg11.dtd">
<svg version="1.1" id="圖層_1" xmlns="http://www.w3.org/2000/svg" xmlns:xlink="http://www.w3.org/1999/xlink" x="0px" y="0px"
	 width="369px" height="119px" viewBox="0 0 369 119" enable-background="new 0 0 369 119" xml:space="preserve">
<g>
	<rect fill="#D48375" width="369" height="119"/>
	<g>
		<g>
			<path fill="#FFFFFF" d="M21.802,67.777c10.028,0.188,24.257-8.724,27.131-18.568c0.758-2.594-0.559-4.795-2.456-6.391
				c-4.126-3.453-9.509-3.361-13.587,0.484c-5.742,5.405-0.537,12.953,5.084,15.773c12.359,6.23,30.427-3.947,40.799-9.873
				c-0.483-0.484-0.964-0.968-1.445-1.449c-8.092,4.732-14.933,10.881-21.678,17.332c-3.453,3.303-4.442,7.487-0.933,11.008
				c10.285,10.341,30.858-1.028,37.641-10.353c2.484-3.431,1.695-7.532-2.032-9.47c-5.624-2.925-13.759,4.125-15.837,9.168
				c-1.651,4.016,3.962,6.572,6.838,6.934c7.153,0.905,14.783-1.943,21.258-4.717c4.334-1.863,8.59-3.932,12.811-6.041
				c-0.186,0.096-1.225-1.553-1.444-1.449c-6.969,3.245-12.907,9.363-18.048,14.898c-2.615,2.816-6.035,6.082-2.629,9.432
				c3.588,3.537,11.165,0.882,15.109-0.661c8.627-3.361,16.845-9.47,22.205-17.095c2.727-3.891,5.891-11.363,1.807-15.486
				c-4.417-4.464-10.602-2.725-13.031,2.855c-1.731,3.982-0.323,7.314,2.546,10.1c3.759,3.656,9.843,1.268,13.569-0.98
				c8.802-5.303,19.333-16.828,20.253-27.85c0.679-8.107-9.691-9.418-15.164-6.773c-7.201,3.49-13.233,13.375-6.487,19.678
				c3.353,3.137,9.023,2.35,13.268,2.593c6.249,0.349,14.983,0.758,19.768,5.386c-0.447-0.45-0.896-0.904-1.343-1.354
				c3.839,4.699,1.877,10.787-2.088,14.628c-4.198,4.063-11.526,4.614-16.86,3.663c0.541,0.088,0.896,1.262,1.444,1.452
				c7.656,2.649,17.186,4.853,25.247,3.349c6.355-1.188,13.48-5.555,12.102-13.066c-1.816-9.949-21.556,0.223-12.25,9.467
				c10.691,10.625,27.994-4.859,30.615-15.885c0.985-4.141-1.665-8.466-5.087-10.695c-7.024-4.587-16.035,5.084-13.942,11.943
				c3.727,12.262,20.324,5.625,29.147,9.164c6.12,2.459,2.219,10.025-0.615,13.566c-6.549,8.19-16.562,8.342-25.527,4.246
				c0.563,0.256,0.922,1.102,1.447,1.457c11.066,7.527,26.531,0.445,35.827-6.394c5.573-4.097,18.985-15.148,9.998-21.524
				c-7.118-5.051-18.539,5.051-11.674,11.872c3.448,3.427,10.652,1.048,14.409-0.502c7.377-3.046,13.997-8.544,20.167-13.46
				c-0.479-0.48-0.963-0.969-1.444-1.452c-4.656,4.813-15.195,14.702-8.542,21.165c3.763,3.654,11.688-1.209,15.049-3.042
				c6.208-3.387,12.332-7.678,17.443-12.612c3.29-3.172,6.948-7.429,3.047-11.33c-3.993-3.994-11.119-2.602-14.102,1.98
				c-5.272,8.088,5.575,11.269,11.767,9.756c11.125-2.711,21.419-10.717,30.438-17.347c-0.486-0.485-0.969-0.97-1.447-1.453
				c-6.558,5.521-13.964,14.071-16.178,22.491c-0.641,2.438,0.52,3.926,2.168,5.532c4.732,4.599,16.307-1.798,20.695-3.796
				c11.629-5.305,22.986-12.375,31.166-22.393c0.05-0.057-1.479-1.408-1.447-1.451c-6.761,8.272-15.699,14.49-25.091,19.404
				c-6.496,3.396-17.178,9.938-25.024,7.813c-0.334-0.09-0.64-0.242-0.945-0.409c-0.966-0.505,0.794,1.119,0.255,0.31
				c-0.3-0.465-0.426-1.036-0.497-1.583c-0.088-0.729,0.019-1.509,0.229-2.206c2.529-8.387,9.494-16.679,16.115-22.259
				c-0.055,0.038-1.365-1.516-1.447-1.453c-8.76,6.44-18.069,13.175-28.436,16.753c-3.877,1.34-9.507,1.969-12.817-0.925
				c0.47,0.479,0.948,0.948,1.419,1.429c-5.449-6.857,8.432-13.908,14.084-9.272c-0.476-0.47-0.946-0.94-1.419-1.419
				c4.883,5.436-8.496,14.483-12.103,17.037c-4.919,3.48-10.084,6.797-15.71,8.986c-2.486,0.969-6.26,2.088-8.558,0.1
				c0.412,0.41,0.83,0.823,1.239,1.238c-4.735-4.867,7.061-16.451,10.091-19.592c-0.005,0.007-1.402-1.485-1.444-1.452
				c-6.103,4.864-12.464,9.876-19.567,13.194c-3.829,1.789-10.89,4.07-14.639,1.117c0.451,0.451,0.9,0.899,1.349,1.352
				c-6.105-6.309,7.799-15.829,13.553-10.129c-0.357-0.369-0.723-0.736-1.082-1.099c2.838,4.048-2.388,9.581-4.935,12.396
				c-4.453,4.92-9.973,8.908-15.8,11.996c-7.794,4.138-19.672,6.57-27.607,1.176c0.48,0.484,0.959,0.967,1.447,1.457
				c8.925,4.075,18.21,3.875,25.068-3.714c3.241-3.579,6.217-9.356,2.497-13.663c-3.021-3.484-7.161-4.541-11.636-4.834
				c-5.693-0.375-13.128,2.092-17.768-2.25c0.472,0.477,0.947,0.95,1.417,1.432c-3.619-4.354-4.254-9.379,0.133-13.396
				c3.404-3.113,8.913-4.891,12.525-1.381c-0.448-0.452-0.897-0.905-1.345-1.357c6.228,7.43-1.254,16.318-6.839,21.525
				c-5.522,5.146-14.762,8.398-21.146,2.773c0.476,0.473,0.952,0.945,1.419,1.426c-3.207-3.783-1.081-7.298,2.205-10.125
				c2.197-1.898,5.705-3.883,8.388-1.992c-0.438-0.445-0.889-0.898-1.343-1.346c2.322,2.398,1.397,6.475-0.089,9.052
				c-1.878,3.251-5.941,4.914-9.368,5.862c-8.319,2.301-18.727-0.252-26.699-3.01c0.483,0.482,0.963,0.963,1.444,1.452
				c7.728,1.378,17.009-0.85,20.457-8.626c1.666-3.75,0.131-8.064-2.592-10.768c-4.165-4.138-10.699-4.893-16.263-5.517
				c-5.323-0.593-12.788,0.679-17.208-2.882c0.453,0.447,0.902,0.898,1.353,1.348c-8.138-8.58,11.502-26.201,20.024-17.748
				c-0.357-0.366-0.716-0.736-1.076-1.099c5.242,6.905-4.351,18.396-8.646,23.345c-4.678,5.395-15.662,16.32-23.747,10.146
				c0.412,0.417,0.824,0.825,1.236,1.235c-6.061-6.198,4.029-19.215,11.011-12.384c-0.444-0.456-0.895-0.905-1.341-1.358
				c5.625,7.506-4.506,18.803-9.97,23.209c-5.45,4.394-11.559,8.094-18.288,10.125c-2.915,0.879-8.584,2.115-10.956-0.221
				c0.411,0.418,0.821,0.829,1.229,1.246c-2.547-4.176,6.646-11.148,8.633-13.088c3.861-3.752,8.337-7.703,13.272-10
				c-0.485-0.484-0.965-0.971-1.444-1.449c-6.854,3.421-13.75,6.828-21.095,9.05c-5.007,1.515-12.838,3.46-17.606,0.045
				c0.471,0.478,0.944,0.952,1.419,1.425c-5.078-5.579,10.399-16.88,15.731-12.582c-0.305-0.303-0.615-0.609-0.921-0.911
				c6.973,7.036-13.953,17.517-17.35,18.925c-6.397,2.633-14.379,4.01-20.128-0.754c0.477,0.471,0.949,0.949,1.422,1.427
				c-4.276-4.647,0.876-9.497,4.149-12.796c5.653-5.68,12.289-10.741,19.201-14.791c-0.141,0.08-1.277-1.549-1.445-1.449
				C66.391,54,49.449,63.358,36.531,57.631C24.61,52.343,37.76,35.762,47.922,44.274c-0.48-0.487-0.964-0.966-1.445-1.456
				c4.451,6.168-4.476,13.418-8.672,16.619c-4.974,3.815-11.057,7.006-17.452,6.889C20.832,66.333,21.299,67.768,21.802,67.777
				L21.802,67.777z"/>
		</g>
		<g>
			<path fill="#FFFFFF" d="M61.613,36.766c-1.106,4.193-4.048,7.664-7.278,10.386c0.091-0.077,1.242,1.495,1.442,1.448
				c11.887-2.42,23.454-7.727,34.323-12.922c-0.188,0.088-1.224-1.557-1.445-1.453c-10.87,5.193-22.432,10.5-34.32,12.927
				c0.483,0.487,0.962,0.968,1.442,1.448c3.234-2.716,6.176-6.188,7.285-10.381C63.153,37.871,61.532,37.088,61.613,36.766
				L61.613,36.766z"/>
		</g>
		<g>
			<path fill="#FFFFFF" d="M101.088,52.584c-0.495,2.959-2.32,5.342-4.681,7.058c0.124-0.095,1.216,1.504,1.442,1.458
				c7.532-1.373,14.937-4.204,21.545-8.049c-0.139,0.085-1.277-1.549-1.441-1.45c-6.614,3.84-14.017,6.674-21.546,8.041
				c0.483,0.497,0.96,0.975,1.442,1.458c2.366-1.715,4.189-4.105,4.685-7.063C102.604,53.635,101.028,52.962,101.088,52.584
				L101.088,52.584z"/>
		</g>
		<g>
			<path fill="#FFFFFF" d="M138.687,44.984c0.549-2.208,1.742-4.373,3.54-5.779c2.658-2.072,6.389-0.791,7.726,2.016
				c0.278,0.588,1.171,0.875,1.444,1.453c-1.264-2.664-3.92-5.327-6.877-5.857c-3.874-0.695-6.47,3.484-7.275,6.721
				C137.153,43.887,138.769,44.658,138.687,44.984L138.687,44.984z"/>
		</g>
		<g>
			<path fill="#FFFFFF" d="M144.606,65.893c4.311,2.51,7.674,0.139,7.558-4.793c-0.484-0.483-0.965-0.961-1.444-1.458
				c1.459,4.707,9.271,8.446,11.471,2.298c0.102-0.295-1.542-1.196-1.444-1.454c-1.195,3.345-5.81,4.374-8.377,1.83
				c0.406,0.418,0.82,0.833,1.224,1.247c-0.615-0.729-1.147-1.537-1.43-2.463c-0.156-0.486-1.434-0.977-1.444-1.458
				c0.112,4.938-3.248,7.31-7.559,4.8C143.727,64.771,144.032,65.559,144.606,65.893L144.606,65.893z"/>
		</g>
		<g>
			<path fill="#FFFFFF" d="M191.444,61.529c0.22-2.092,1.177-4.197,2.944-5.363c1.686-1.118,4.462-0.8,5.892,0.552
				c-0.473-0.478-0.953-0.955-1.42-1.429c0.57,0.67,0.832,1.378,0.978,2.239c0.097,0.56,1.356,0.909,1.446,1.448
				c-0.465-2.766-3.264-4.945-6.007-4.898c-3.167,0.041-4.976,3.123-5.278,5.996C189.955,60.514,191.484,61.113,191.444,61.529
				L191.444,61.529z"/>
		</g>
		<g>
			<path fill="#FFFFFF" d="M194.062,80.492c1.34,0.899,2.885,1.504,4.488,1.651c3.123,0.276,4.467-3.193,3.669-5.719
				c-0.48-0.488-0.966-0.968-1.449-1.45c0.622,1.452,1.805,2.521,2.914,3.6c2.905,2.82,7.203-0.377,7.021-3.866
				c-0.029-0.517-1.422-0.95-1.446-1.449c0.182,3.598-3.905,6.386-6.918,3.956c0.185,0.172,0.356,0.352,0.537,0.52
				c-0.12-0.121-0.242-0.242-0.368-0.363c0.3,0.309,0.606,0.618,0.909,0.924c-0.481-0.574-0.901-1.178-1.2-1.87
				c-0.241-0.575-1.26-0.876-1.449-1.45c0.794,2.51-0.337,5.336-3.153,5.71c-1.68,0.223-3.634-0.729-4.999-1.646
				C193.17,79.41,193.502,80.117,194.062,80.492L194.062,80.492z"/>
		</g>
		<g>
			<path fill="#FFFFFF" d="M243.017,52.71c0.105,3.124-1.529,5.987-3.536,8.222c0.026-0.027,1.339,1.505,1.444,1.453
				c6.509-3.123,12.486-7.708,17.546-12.838c0.013-0.014-1.439-1.461-1.447-1.451c-5.063,5.129-11.035,9.703-17.543,12.836
				c0.479,0.486,0.966,0.968,1.444,1.453c2.008-2.234,3.642-5.099,3.538-8.222C244.442,53.66,243.034,53.207,243.017,52.71
				L243.017,52.71z"/>
		</g>
		<g>
			<path fill="#FFFFFF" d="M292.031,40.645c0.186,3.113-1.104,5.933-3.414,7.962c0.085-0.066,1.282,1.513,1.448,1.45
				c7.218-2.541,13.881-7.824,19.93-12.323c-0.07,0.048-1.355-1.528-1.453-1.456c-6.04,4.506-12.705,9.785-19.925,12.329
				c0.485,0.485,0.966,0.971,1.448,1.45c2.308-2.027,3.596-4.846,3.41-7.961C293.438,41.574,292.056,41.146,292.031,40.645
				L292.031,40.645z"/>
		</g>
	</g>
</g>
</svg>
